#!OML:ASF \\Waltz\H\Terrain\Patient Classification 1\Animal2\Wednesday\Animal2.ASF
:FULLY-SPECIFIED
:DEGREES
1750
root 9.07705 18.0513 14.2965 -716.713 -8.69682 -364.563
lowerback 2.97215 0.0739052 9.98093
upperback -3.73685 0.845786 4.04694
thorax -5.53718 0.0966867 -1.40388
lowerneck 8.64684 5.51502 17.7563
upperneck -10.7392 8.3145 -13.4685
head -3.23822 4.20623 -7.45077
rclavicle -3.15074e-014 4.29375e-014
rhumerus 35.6582 32.6147 -26.4941
rradius 61.6163
rwrist -26.1331
rhand -11.529 22.7324
rfingers 7.12502
rthumb 14.5108 -6.74012
lclavicle -3.15074e-014 4.29375e-014
lhumerus 3.32147 9.38926 0.565133
lradius 56.8695
lwrist 10.0796
lhand -52.6889 12.7661
lfingers 7.12502
lthumb -25.1677 41.1269
rfemur -7.11641 -11.0702 16.9836
rtibia 30.7928
rfoot -11.532 -9.60565
rtoes 28.0241
lfemur -22.8074 21.4106 -19.8177
ltibia 31.3529
lfoot -23.0717 23.2214
ltoes 21.0626
1751
root 9.12704 18.069 14.3614 -716.72 -7.59617 -365.051
lowerback 2.73737 0.0874475 10.6278
upperback -3.67099 0.865298 4.15992
thorax -5.33272 0.0936405 -1.64074
lowerneck 8.69343 5.53788 17.8312
upperneck -10.8895 8.37374 -13.2891
head -3.28844 4.21945 -7.41317
rclavicle 2.59414e-014 -3.49861e-014
rhumerus 35.6489 32.682 -26.2535
rradius 62.1354
rwrist -26.2232
rhand -11.7027 22.601
rfingers 7.12502
rthumb 14.3435 -6.8835
lclavicle 2.59414e-014 -3.49861e-014
lhumerus 3.29078 9.42008 -0.0602252
lradius 56.7253
lwrist 10.1954
lhand -53.3536 12.5529
lfingers 7.12502
lthumb -25.8044 40.8227
rfemur -6.56176 -11.684 17.2316
rtibia 30.4693
rfoot -10.2129 -10.1296
rtoes 23.8471
lfemur -22.8628 21.7666 -19.7655
ltibia 30.8679
lfoot -23.5546 23.606
ltoes 24.7615
1752
root 9.17799 18.0855 14.4257 -716.773 -6.42593 -364.988
lowerback 2.47859 0.116061 10.7379
upperback -3.65137 0.86526 4.03689
thorax -5.16099 0.0954841 -1.82954
lowerneck 8.48483 5.5519 18.2743
upperneck -10.7009 8.43542 -13.1431
head -3.17859 4.22398 -7.41897
rclavicle -2.27608e-014 7.63333e-014
rhumerus 35.7051 32.5783 -26.4385
rradius 62.2884
rwrist -26.1262
rhand -11.5366 22.398
rfingers 7.12502
rthumb 14.5035 -7.0751
lclavicle -2.27608e-014 7.63333e-014
lhumerus 3.53784 9.43725 -0.688625
lradius 56.4974
lwrist 10.2656
lhand -54.7135 15.1882
lfingers 7.12502
lthumb -27.1061 43.2621
rfemur -5.99029 -12.0999 16.8572
rtibia 30.1516
rfoot -9.61123 -10.2925
rtoes 24.7123
lfemur -22.9835 22.1013 -20.3716
ltibia 30.5284
lfoot -24.0158 23.5239
ltoes 27.3629
1753
root 9.23103 18.1074 14.4856 -716.806 -5.19159 -365.073
lowerback 2.39874 0.152618 10.6832
upperback -3.72852 0.917672 4.23118
thorax -5.19564 0.12489 -1.5982
lowerneck 8.10349 5.57823 18.3538
upperneck -10.2774 8.43363 -13.1156
head -2.98803 4.22078 -7.38794
rclavicle -6.95746e-016 -6.52014e-014
rhumerus 35.86 32.6725 -26.0321
rradius 62.3723
rwrist -26.1994
rhand -11.314 22.3304
rfingers 7.12502
rthumb 14.718 -7.12709
lclavicle -6.95746e-016 -6.52014e-014
lhumerus 3.54842 9.29227 -0.898262
lradius 56.447
lwrist 10.5224
lhand -52.9365 13.28
lfingers 7.12502
lthumb -25.4049 41.6073
rfemur -5.44788 -12.3949 16.6522
rtibia 29.94
rfoot -9.24462 -10.357
rtoes 27.7082
lfemur -23.1488 22.31 -20.8604
ltibia 30.3177
lfoot -23.7816 23.5664
ltoes 26.5896
1754
root 9.29022 18.1191 14.5438 -716.918 -3.98839 -365.525
lowerback 2.36388 0.193069 10.9208
upperback -3.69453 0.995503 4.65823
thorax -5.13992 0.167657 -1.28495
lowerneck 7.7126 5.61789 18.1286
upperneck -10.0871 8.39957 -13.118
head -2.88068 4.20752 -7.32766
rclavicle 6.36111e-015 -4.92986e-014
rhumerus 36.1194 32.7635 -25.1674
rradius 62.5808
rwrist -26.5155
rhand -11.1121 22.4135
rfingers 7.12502
rthumb 14.9125 -7.02969
lclavicle 6.36111e-015 -4.92986e-014
lhumerus 3.43523 9.44135 -0.843203
lradius 56.4735
lwrist 10.6006
lhand -52.0549 13.5735
lfingers 7.12502
lthumb -24.5601 42.0182
rfemur -4.86294 -12.5126 16.8237
rtibia 29.8475
rfoot -8.40432 -10.5731
rtoes 29.928
lfemur -23.1565 22.4021 -20.8912
ltibia 30.2251
lfoot -22.8362 23.4081
ltoes 24.0898
1755
root 9.35527 18.1264 14.6026 -717.024 -2.77234 -365.85
lowerback 1.99031 0.225281 11.3243
upperback -3.45487 0.982824 4.84709
thorax -4.6741 0.178445 -1.30693
lowerneck 7.5335 5.60339 17.9955
upperneck -10.4201 8.32743 -13.0208
head -2.97171 4.15787 -7.28067
rclavicle 6.4605e-015 -7.79236e-014
rhumerus 36.3633 32.4672 -24.7143
rradius 62.7821
rwrist -26.5998
rhand -10.8847 22.0926
rfingers 7.12502
rthumb 15.1316 -7.33424
lclavicle 6.4605e-015 -7.79236e-014
lhumerus 3.48342 9.88008 -1.09739
lradius 56.4237
lwrist 10.5226
lhand -47.906 6.07112
lfingers 7.12502
lthumb -20.5781 35.0004
rfemur -4.35169 -12.7599 16.8039
rtibia 29.8523
rfoot -7.35582 -10.7556
rtoes 30.5897
lfemur -23.1488 22.3711 -21.0426
ltibia 30.244
lfoot -22.184 22.8092
ltoes 24.0845
1756
root 9.42014 18.1348 14.6655 -717.088 -1.48509 -366.106
lowerback 1.65964 0.227343 11.6183
upperback -3.38104 0.946407 5.04957
thorax -4.41381 0.169252 -1.25159
lowerneck 7.58938 5.54431 17.8098
upperneck -10.6732 8.23484 -12.9174
head -3.08384 4.10811 -7.23089
rclavicle 6.95746e-016 0
rhumerus 36.3982 32.3413 -24.4147
rradius 62.9912
rwrist -26.3787
rhand -10.824 21.5645
rfingers 7.12502
rthumb 15.19 -7.85797
lclavicle 6.95746e-016 0
lhumerus 3.31548 9.71706 -1.51429
lradius 56.4882
lwrist 10.8532
lhand -42.9492 3.06036
lfingers 7.12502
lthumb -15.8095 32.4348
rfemur -3.94378 -13.2335 16.6874
rtibia 29.9589
rfoot -6.69849 -10.8247
rtoes 29.986
lfemur -23.1641 22.3215 -21.2982
ltibia 30.3263
lfoot -21.588 22.0811
ltoes 24.8633
1757
root 9.48402 18.132 14.7282 -717.33 -0.160749 -366.379
lowerback 1.71637 0.204412 11.7888
upperback -3.50343 0.959529 5.3071
thorax -4.58167 0.165406 -1.07297
lowerneck 7.83848 5.40333 17.9011
upperneck -10.6547 8.0846 -13.0824
head -3.13103 4.04665 -7.30943
rclavicle -3.8763e-015 -8.11041e-014
rhumerus 36.1605 32.5624 -24.1525
rradius 63.1878
rwrist -26.2878
rhand -10.9506 21.6343
rfingers 7.12502
rthumb 15.0681 -7.79731
lclavicle -3.8763e-015 -8.11041e-014
lhumerus 3.17136 9.24443 -1.8133
lradius 56.6132
lwrist 11.357
lhand -52.0491 9.56877
lfingers 7.12502
lthumb -24.5546 38.0142
rfemur -3.4362 -13.6501 16.5625
rtibia 30.2059
rfoot -6.66779 -10.7917
rtoes 30.7473
lfemur -22.903 22.1591 -21.4271
ltibia 30.3151
lfoot -20.9406 21.6442
ltoes 23.1593
1758
root 9.5482 18.1257 14.7844 -717.658 1.11367 -366.683
lowerback 1.87111 0.229525 12.0765
upperback -3.59693 1.05178 5.45461
thorax -4.76467 0.194336 -1.07784
lowerneck 8.14286 5.23941 18.2753
upperneck -10.7641 7.93796 -13.2955
head -3.21225 3.97702 -7.45645
rclavicle -1.20265e-014 -6.36111e-015
rhumerus 35.6996 32.6786 -24.1505
rradius 63.3044
rwrist -26.4392
rhand -10.8084 22.0739
rfingers 7.12502
rthumb 15.205 -7.34739
lclavicle -1.20265e-014 -6.36111e-015
lhumerus 3.44394 9.19191 -1.93668
lradius 56.5756
lwrist 11.3638
lhand -53.7739 12.1533
lfingers 7.12502
lthumb -26.2069 40.364
rfemur -2.90554 -13.653 16.5226
rtibia 30.5522
rfoot -6.2656 -10.9341
rtoes 29.846
lfemur -22.4716 21.6839 -21.3813
ltibia 30.188
lfoot -20.683 21.4965
ltoes 21.2702
1759
root 9.61492 18.1253 14.8377 -717.798 2.36099 -366.792
lowerback 1.8785 0.224482 12.1075
upperback -3.69766 1.0721 5.65259
thorax -4.88009 0.200955 -0.885961
lowerneck 8.297 5.2261 18.2403
upperneck -10.8475 7.94067 -13.2889
head -3.26409 3.98141 -7.459
rclavicle -6.26172e-015 1.59028e-014
rhumerus 35.5201 32.7551 -23.9798
rradius 63.3056
rwrist -26.6323
rhand -10.524 22.3895
rfingers 7.12502
rthumb 15.479 -7.01083
lclavicle -6.26172e-015 1.59028e-014
lhumerus 3.48264 9.3053 -1.99584
lradius 56.4535
lwrist 11.1466
lhand -52.4749 11.7012
lfingers 7.12502
lthumb -24.9626 40.0906
rfemur -2.60915 -13.6265 16.291
rtibia 30.9449
rfoot -4.91098 -11.2004
rtoes 27.1926
lfemur -22.2287 20.9584 -21.5403
ltibia 30.0326
lfoot -20.5126 21.3914
ltoes 20.8002
